<svg width="60" height="60" viewBox="0 0 60 60" fill="none" xmlns="http://www.w3.org/2000/svg">
<path fill-rule="evenodd" clip-rule="evenodd" d="M30 55C43.8071 55 55 43.8071 55 30C55 16.1929 43.8071 5 30 5C16.1929 5 5 16.1929 5 30C5 43.8071 16.1929 55 30 55ZM24.9242 21.1742C25.6564 20.4419 26.8436 20.4419 27.5758 21.1742L35.0758 28.6742C35.8081 29.4064 35.8081 30.5936 35.0758 31.3258L27.5758 38.8258C26.8436 39.5581 25.6564 39.5581 24.9242 38.8258C24.1919 38.0936 24.1919 36.9064 24.9242 36.1742L31.0983 30L24.9242 23.8258C24.1919 23.0936 24.1919 21.9064 24.9242 21.1742Z" fill="white"/>
</svg>
