<svg width="121" height="119" viewBox="0 0 121 119" fill="none" xmlns="http://www.w3.org/2000/svg">
<rect x="0.5" width="120" height="118.681" rx="26.3736" fill="#E2FFF1"/>
<path d="M51.7631 70.8791C52.3751 70.8791 52.9621 70.6359 53.3949 70.2032C53.8276 69.7704 54.0708 69.1834 54.0708 68.5714C54.0821 68.4177 54.0821 68.2635 54.0708 68.1098C54.0455 67.9653 53.9988 67.8253 53.9323 67.6944C53.8818 67.5474 53.8119 67.4077 53.7246 67.2791L53.4477 66.9329C53.2282 66.7228 52.9694 66.5581 52.6861 66.4483C52.2548 66.2452 51.7711 66.1807 51.3015 66.2637L50.8861 66.4021L50.4708 66.6098C50.3499 66.695 50.2343 66.7875 50.1246 66.8867L49.8477 67.2329C49.7603 67.3615 49.6905 67.5012 49.64 67.6483C49.5735 67.7791 49.5268 67.9191 49.5015 68.0637C49.4902 68.2173 49.4902 68.3716 49.5015 68.5252C49.5015 69.1372 49.7447 69.7242 50.1774 70.157C50.6102 70.5898 51.1972 70.8329 51.8092 70.8329L51.7631 70.8791ZM70.2246 70.8791C70.8366 70.8791 71.4236 70.6359 71.8564 70.2032C72.2892 69.7704 72.5323 69.1834 72.5323 68.5714C72.5436 68.4177 72.5436 68.2635 72.5323 68.1098C72.507 67.9653 72.4604 67.8253 72.3938 67.6944C72.3433 67.5474 72.2735 67.4077 72.1861 67.2791L71.9092 66.9329C71.6849 66.7291 71.4273 66.5652 71.1477 66.4483C70.5859 66.2175 69.9557 66.2175 69.3938 66.4483C69.1142 66.5652 68.8566 66.7291 68.6323 66.9329L68.3554 67.2791C68.268 67.4077 68.1982 67.5474 68.1477 67.6944C68.0812 67.8253 68.0345 67.9653 68.0092 68.1098C67.9979 68.2635 67.9979 68.4177 68.0092 68.5714C68.0118 69.1768 68.2521 69.7569 68.6785 70.1867C69.0874 70.6052 69.6401 70.8526 70.2246 70.8791ZM63.3015 43.1867H58.6861C58.0741 43.1867 57.4871 43.4299 57.0544 43.8627C56.6216 44.2954 56.3785 44.8824 56.3785 45.4944C56.3785 46.1065 56.6216 46.6934 57.0544 47.1262C57.4871 47.559 58.0741 47.8021 58.6861 47.8021H63.3015C63.9136 47.8021 64.5005 47.559 64.9333 47.1262C65.3661 46.6934 65.6092 46.1065 65.6092 45.4944C65.6092 44.8824 65.3661 44.2954 64.9333 43.8627C64.5005 43.4299 63.9136 43.1867 63.3015 43.1867ZM74.84 36.2637H47.1477C45.3116 36.2637 43.5507 36.9931 42.2523 38.2914C40.954 39.5897 40.2246 41.3506 40.2246 43.1867V70.8791C40.2286 72.3074 40.6743 73.6995 41.5006 74.8646C42.3269 76.0297 43.4933 76.9106 44.84 77.3867V80.1098C44.84 80.7219 45.0831 81.3088 45.5159 81.7416C45.9487 82.1744 46.5356 82.4175 47.1477 82.4175C47.7597 82.4175 48.3467 82.1744 48.7795 81.7416C49.2122 81.3088 49.4554 80.7219 49.4554 80.1098V77.8021H72.5323V80.1098C72.5323 80.7219 72.7754 81.3088 73.2082 81.7416C73.641 82.1744 74.228 82.4175 74.84 82.4175C75.452 82.4175 76.039 82.1744 76.4718 81.7416C76.9046 81.3088 77.1477 80.7219 77.1477 80.1098V77.3867C78.4943 76.9106 79.6608 76.0297 80.4871 74.8646C81.3134 73.6995 81.7591 72.3074 81.7631 70.8791V43.1867C81.7631 41.3506 81.0337 39.5897 79.7353 38.2914C78.437 36.9931 76.6761 36.2637 74.84 36.2637ZM77.1477 70.8791C77.1477 71.4911 76.9046 72.0781 76.4718 72.5108C76.039 72.9436 75.452 73.1867 74.84 73.1867H47.1477C46.5356 73.1867 45.9487 72.9436 45.5159 72.5108C45.0831 72.0781 44.84 71.4911 44.84 70.8791V63.956H77.1477V70.8791ZM77.1477 59.3406H44.84V43.1867C44.84 42.5747 45.0831 41.9877 45.5159 41.555C45.9487 41.1222 46.5356 40.8791 47.1477 40.8791H74.84C75.452 40.8791 76.039 41.1222 76.4718 41.555C76.9046 41.9877 77.1477 42.5747 77.1477 43.1867V59.3406Z" fill="#008646"/>
</svg>
