<svg width="16" height="16" viewBox="0 0 16 16" fill="none" xmlns="http://www.w3.org/2000/svg">
<path d="M11.3344 6.11378C11.2095 5.98962 11.0406 5.91992 10.8644 5.91992C10.6883 5.91992 10.5193 5.98962 10.3944 6.11378L8.00111 8.47378L5.64111 6.11378C5.5162 5.98962 5.34723 5.91992 5.17111 5.91992C4.99498 5.91992 4.82601 5.98962 4.70111 6.11378C4.63862 6.17576 4.58902 6.24949 4.55518 6.33073C4.52133 6.41197 4.50391 6.49911 4.50391 6.58712C4.50391 6.67512 4.52133 6.76226 4.55518 6.8435C4.58902 6.92474 4.63862 6.99847 4.70111 7.06045L7.52777 9.88712C7.58975 9.9496 7.66348 9.9992 7.74472 10.033C7.82596 10.0669 7.9131 10.0843 8.00111 10.0843C8.08911 10.0843 8.17625 10.0669 8.25749 10.033C8.33873 9.9992 8.41246 9.9496 8.47444 9.88712L11.3344 7.06045C11.3969 6.99847 11.4465 6.92474 11.4804 6.8435C11.5142 6.76226 11.5316 6.67512 11.5316 6.58712C11.5316 6.49911 11.5142 6.41197 11.4804 6.33073C11.4465 6.24949 11.3969 6.17576 11.3344 6.11378Z" fill="black"/>
</svg>
