<svg width="14" height="21" viewBox="0 0 14 21" fill="none" xmlns="http://www.w3.org/2000/svg">
<g clip-path="url(#clip0_320_8152)">
<path fill-rule="evenodd" clip-rule="evenodd" d="M13.9566 7.15349C13.9566 10.85 7.63847 19.4854 7.36973 19.8505L7.11619 20.1953C7.09084 20.2308 7.04013 20.2562 6.98942 20.2562C6.94379 20.2562 6.89815 20.2308 6.86773 20.1953L6.61419 19.8505C6.34544 19.4854 0.0273438 10.85 0.0273438 7.15349C0.0273438 3.31496 3.1509 0.191406 6.98942 0.191406C10.833 0.191406 13.9566 3.31496 13.9566 7.15349ZM4.49971 7.15349C4.49971 8.52765 5.61526 9.64828 6.98942 9.64828C8.36866 9.64828 9.48421 8.52765 9.48421 7.15349C9.48421 5.77933 8.36866 4.6587 6.98942 4.6587C5.61526 4.6587 4.49971 5.77933 4.49971 7.15349Z" fill="black"/>
</g>
<defs>
<clipPath id="clip0_320_8152">
<rect width="13.9952" height="20.08" fill="white" transform="translate(0.00195312 0.191406)"/>
</clipPath>
</defs>
</svg>
