<svg width="121" height="119" viewBox="0 0 121 119" fill="none" xmlns="http://www.w3.org/2000/svg">
<rect x="0.5" width="120" height="118.682" rx="26.3737" fill="#E2F3FF"/>
<path d="M81.3503 53.6869L76.9887 52.233L79.0426 48.1253C79.2508 47.6953 79.3204 47.2114 79.2419 46.7401C79.1633 46.2689 78.9405 45.8337 78.6041 45.4945L73.6887 40.5791C73.3477 40.2377 72.9083 40.0119 72.4323 39.9332C71.9562 39.8546 71.4675 39.9271 71.0349 40.1406L66.9272 42.1945L65.4733 37.8329C65.3198 37.3783 65.0283 36.9828 64.6395 36.7016C64.2507 36.4203 63.7839 36.2672 63.3041 36.2637H56.381C55.8972 36.2624 55.4253 36.4133 55.0319 36.6949C54.6385 36.9764 54.3435 37.3746 54.1887 37.8329L52.7349 42.1945L48.6272 40.1406C48.1972 39.9324 47.7132 39.8628 47.242 39.9413C46.7708 40.0199 46.3356 40.2427 45.9964 40.5791L41.081 45.4945C40.7397 45.8355 40.5138 46.2749 40.4352 46.751C40.3565 47.227 40.429 47.7157 40.6426 48.1484L42.6964 52.2561L38.3349 53.7099C37.8802 53.8635 37.4848 54.1549 37.2035 54.5437C36.9223 54.9325 36.7692 55.3993 36.7656 55.8792V62.8023C36.7644 63.2861 36.9152 63.7581 37.1968 64.1515C37.4784 64.5449 37.8765 64.8398 38.3349 64.9946L42.6964 66.4485L40.6426 70.5562C40.4344 70.9862 40.3647 71.4701 40.4433 71.9414C40.5218 72.4126 40.7446 72.8478 41.081 73.187L45.9964 78.1024C46.3374 78.4437 46.7768 78.6696 47.2528 78.7483C47.7289 78.8269 48.2176 78.7544 48.6502 78.5409L52.7579 76.487L54.2118 80.8486C54.3666 81.3069 54.6616 81.705 55.055 81.9866C55.4484 82.2682 55.9203 82.4191 56.4041 82.4178H63.3272C63.811 82.4191 64.2829 82.2682 64.6763 81.9866C65.0697 81.705 65.3647 81.3069 65.5195 80.8486L66.9733 76.487L71.081 78.5409C71.5082 78.7438 71.9875 78.8106 72.4539 78.7322C72.9203 78.6538 73.3514 78.4339 73.6887 78.1024L78.6041 73.187C78.9454 72.846 79.1713 72.4066 79.25 71.9305C79.3286 71.4545 79.2561 70.9658 79.0426 70.5331L76.9887 66.4254L81.3503 64.9715C81.8049 64.818 82.2003 64.5266 82.4816 64.1378C82.7629 63.749 82.9159 63.2822 82.9195 62.8023V55.8792C82.9207 55.3954 82.7699 54.9234 82.4883 54.53C82.2067 54.1366 81.8086 53.8417 81.3503 53.6869ZM78.3041 61.1408L75.5349 62.0638C74.8981 62.2704 74.3138 62.613 73.8227 63.0679C73.3315 63.5228 72.9452 64.0791 72.6905 64.6983C72.4359 65.3174 72.3189 65.9845 72.3478 66.6534C72.3767 67.3222 72.5508 67.9767 72.8579 68.5716L74.1733 71.2024L71.6349 73.7408L69.0733 72.3562C68.4815 72.0614 67.8333 71.8971 67.1725 71.8746C66.5117 71.8521 65.8538 71.9718 65.2433 72.2256C64.6328 72.4794 64.0839 72.8615 63.6339 73.3458C63.1839 73.8302 62.8432 74.4057 62.6349 75.0332L61.7118 77.8024H58.0426L57.1195 75.0332C56.9129 74.3964 56.5703 73.8121 56.1154 73.321C55.6605 72.8298 55.1042 72.4435 54.4851 72.1888C53.8659 71.9341 53.1988 71.8172 52.53 71.8461C51.8612 71.875 51.2066 72.0491 50.6118 72.3562L47.981 73.6716L45.4426 71.1331L46.8272 68.5716C47.1343 67.9767 47.3084 67.3222 47.3373 66.6534C47.3662 65.9845 47.2492 65.3174 46.9946 64.6983C46.7399 64.0791 46.3536 63.5228 45.8624 63.0679C45.3713 62.613 44.787 62.2704 44.1502 62.0638L41.381 61.1408V57.5407L44.1502 56.6177C44.787 56.4111 45.3713 56.0685 45.8624 55.6136C46.3536 55.1587 46.7399 54.6023 46.9946 53.9832C47.2492 53.3641 47.3662 52.697 47.3373 52.0281C47.3084 51.3593 47.1343 50.7048 46.8272 50.1099L45.5118 47.5484L48.0502 45.0099L50.6118 46.3253C51.2066 46.6324 51.8612 46.8065 52.53 46.8354C53.1988 46.8643 53.8659 46.7474 54.4851 46.4927C55.1042 46.238 55.6605 45.8517 56.1154 45.3605C56.5703 44.8694 56.9129 44.2851 57.1195 43.6483L58.0426 40.8791H61.6426L62.5656 43.6483C62.7722 44.2851 63.1148 44.8694 63.5697 45.3605C64.0246 45.8517 64.5809 46.238 65.2001 46.4927C65.8192 46.7474 66.4863 46.8643 67.1551 46.8354C67.8239 46.8065 68.4785 46.6324 69.0733 46.3253L71.7041 45.0099L74.2426 47.5484L72.8579 50.1099C72.5631 50.7017 72.3989 51.35 72.3763 52.0108C72.3538 52.6715 72.4735 53.3295 72.7273 53.94C72.9811 54.5505 73.3632 55.0993 73.8476 55.5494C74.332 55.9994 74.9074 56.3401 75.5349 56.5484L78.3041 57.4715V61.1408ZM59.8426 50.1099C58.0169 50.1099 56.2322 50.6513 54.7142 51.6656C53.1962 52.6799 52.0131 54.1215 51.3144 55.8083C50.6158 57.495 50.433 59.351 50.7892 61.1416C51.1453 62.9322 52.0245 64.577 53.3154 65.8679C54.6064 67.1589 56.2511 68.038 58.0417 68.3942C59.8323 68.7504 61.6883 68.5676 63.375 67.8689C65.0617 67.1703 66.5034 65.9871 67.5177 64.4691C68.532 62.9511 69.0733 61.1664 69.0733 59.3407C69.0733 56.8926 68.1008 54.5447 66.3697 52.8136C64.6386 51.0825 62.2907 50.1099 59.8426 50.1099ZM59.8426 63.9562C58.9297 63.9562 58.0374 63.6855 57.2784 63.1783C56.5194 62.6712 55.9278 61.9503 55.5785 61.107C55.2292 60.2636 55.1378 59.3356 55.3159 58.4403C55.4939 57.545 55.9335 56.7226 56.579 56.0772C57.2245 55.4317 58.0468 54.9921 58.9421 54.814C59.8374 54.6359 60.7654 54.7273 61.6088 55.0767C62.4521 55.426 63.173 56.0176 63.6801 56.7766C64.1873 57.5356 64.4579 58.4279 64.4579 59.3407C64.4579 60.5648 63.9717 61.7388 63.1061 62.6043C62.2406 63.4699 61.0666 63.9562 59.8426 63.9562Z" fill="#0073C6"/>
</svg>
