<svg width="719" height="626" viewBox="0 0 719 626" fill="none" xmlns="http://www.w3.org/2000/svg">
<g opacity="0.15">
<path d="M425.228 348.723C347.159 231.514 221.384 148.446 144.303 163.185C67.2216 177.924 68.0226 284.889 146.092 402.098C224.161 519.307 349.936 602.376 427.017 587.637C504.098 572.897 503.297 465.932 425.228 348.723Z" fill="#85F12C" fill-opacity="0.87"/>
</g>
<g opacity="0.1">
<path d="M473.99 215.865C393.314 115.534 254.507 64.8049 163.956 102.557C73.4057 140.31 65.4008 252.248 146.077 352.579C226.753 452.909 365.56 503.639 456.111 465.886C546.662 428.134 554.667 316.195 473.99 215.865Z" fill="#68CB59"/>
</g>
<g opacity="0.1">
<path d="M300.764 96.5135C362.385 -47.2292 459.922 119.82 454.756 235.481C449.591 351.143 353.995 447.104 241.237 449.816C128.48 452.528 53.1541 449.708 58.3205 334.047C63.486 218.385 239.143 240.257 300.764 96.5135Z" fill="#F2CE28" fill-opacity="0.5"/>
</g>
<g opacity="0.4">
<path d="M137.667 267.714C232.854 108.718 337.981 204.876 447.844 67.3124C557.708 -70.2501 581.812 293.847 506.926 358.806C432.039 423.765 245.663 615.947 137.667 545.958C29.6716 475.97 42.4808 426.711 137.667 267.714Z" fill="url(#paint0_linear_320_8613)"/>
</g>
<g opacity="0.4">
<path d="M88.4349 57.3755C160.147 23.7892 593.023 -44.5991 689.095 42.4696C785.168 129.539 584.061 123.624 569.291 439.961C554.521 756.297 383.085 356.44 287.014 269.371C190.942 182.302 16.7225 90.9618 88.4349 57.3755Z" fill="url(#paint1_linear_320_8613)" fill-opacity="0.7"/>
</g>
<g opacity="0.5">
<path d="M326.014 144.289C425.269 128.283 492.443 134.502 580.439 275.204C668.436 415.906 659.308 542.943 560.053 558.949C460.797 574.955 309 473.868 221.004 333.167C133.007 192.465 226.759 160.296 326.014 144.289Z" fill="#28A745"/>
<path d="M271.174 131.414C392.939 154.174 755.59 207.63 715.821 363.486C684.413 486.588 521.921 646.577 400.156 623.817C278.391 601.058 161.698 499.433 193.107 376.332C224.516 253.229 362.146 195.296 271.174 131.414Z" fill="url(#paint2_linear_320_8613)"/>
</g>
<defs>
<linearGradient id="paint0_linear_320_8613" x1="-51.8852" y1="419.258" x2="350.897" y2="96.2586" gradientUnits="userSpaceOnUse">
<stop stop-color="#FFD33D"/>
<stop offset="0.999154" stop-color="#9ACF5B"/>
</linearGradient>
<linearGradient id="paint1_linear_320_8613" x1="283.731" y1="50.7507" x2="620.203" y2="335.707" gradientUnits="userSpaceOnUse">
<stop stop-color="#46C563" stop-opacity="0.63"/>
<stop offset="1" stop-color="#D869A7"/>
</linearGradient>
<linearGradient id="paint2_linear_320_8613" x1="133.98" y1="191.547" x2="660.921" y2="534.832" gradientUnits="userSpaceOnUse">
<stop stop-color="#109DB6"/>
<stop offset="0.726277" stop-color="#68CB59"/>
</linearGradient>
</defs>
</svg>
