<svg width="19" height="19" viewBox="0 0 19 19" fill="none" xmlns="http://www.w3.org/2000/svg">
<path d="M18.332 1.51953C18.7188 1.625 19 1.94141 19 2.32812C19 11.3633 11.6875 18.6406 2.6875 18.6406C2.26562 18.6406 1.94922 18.3945 1.84375 18.0078L1 14.3516C0.929688 13.9648 1.10547 13.543 1.49219 13.3672L5.42969 11.6797C5.78125 11.5391 6.16797 11.6445 6.41406 11.9258L8.17188 14.0703C10.9141 12.7695 13.1289 10.5195 14.3945 7.84766L12.25 6.08984C11.9688 5.84375 11.8633 5.45703 12.0039 5.10547L13.6914 1.16797C13.8672 0.78125 14.2891 0.570312 14.6758 0.675781L18.332 1.51953Z" fill="#079C34"/>
</svg>
